<svg width="560" height="84" viewBox="0 0 560 84" fill="none" xmlns="http://www.w3.org/2000/svg">
<g clip-path="url(#clip0_84_4010)">
<path d="M559.932 43.1255C559.881 43.0915 559.813 43.0745 559.762 43.0915C559.694 43.1085 559.644 43.1255 559.576 43.1425H559.542C559.406 43.1765 559.287 43.2104 559.168 43.2614C557.284 44.0087 555.807 45.2996 554.635 47.185C554.346 47.6605 554.126 48.1361 553.939 48.6287C554.228 46.9981 554.296 46.3697 554.346 44.5353C554.346 44.4503 554.346 44.3824 554.346 44.2975C554.346 44.0937 554.346 43.8898 554.397 43.703C554.448 43.4822 554.567 43.2784 554.669 43.0576C554.703 43.0066 554.737 42.9387 554.754 42.8877C554.771 42.8707 554.788 42.8537 554.805 42.8537C555.348 42.7688 555.824 42.548 556.265 42.1573C556.706 41.7667 557.08 41.2741 557.352 40.7306C558.353 38.7263 558.846 36.5353 558.829 34.1743C558.829 33.9535 558.795 33.7327 558.778 33.4779C558.761 33.376 558.744 33.2571 558.744 33.1382C558.744 33.0703 558.693 33.0193 558.642 32.9853C558.591 32.9514 558.523 32.9684 558.472 33.0023C558.438 33.0193 558.404 33.0363 558.387 33.0533C558.336 33.0873 558.302 33.1042 558.268 33.1382C557.419 33.7497 556.672 34.497 556.044 35.3972C555.026 36.841 554.431 38.4716 554.262 40.272C554.245 40.0682 554.228 39.8643 554.211 39.6775V39.6096C554.143 38.8282 554.075 38.013 554.024 37.2147C554.007 37.0108 553.973 36.807 553.939 36.6202C553.871 36.2465 553.803 35.9068 553.905 35.5501C553.922 35.4652 553.956 35.3803 553.973 35.2953C554.024 35.0915 554.279 34.7688 554.652 34.4291L554.669 34.4121C554.805 34.2932 555.535 33.6308 555.959 32.3059C556.384 30.9641 556.35 29.5713 556.316 28.5352V28.5013C556.282 27.0915 556.129 26.0384 555.824 25.0702C555.79 24.9514 555.739 24.8155 555.688 24.6966C555.654 24.6286 555.637 24.5607 555.603 24.4928C555.586 24.4248 555.518 24.3908 555.467 24.3739H555.433C555.382 24.3739 555.331 24.3908 555.297 24.4418L554.992 24.8155C553.548 26.5819 552.835 28.6371 552.886 30.9471C552.886 31.3548 552.92 31.7794 552.971 32.204C552.598 30.9301 552.173 29.7072 551.681 28.5182C551.664 28.4843 551.664 28.4673 551.664 28.4333V28.2635C551.664 28.0257 551.647 27.7879 551.664 27.5501C551.664 27.5161 551.698 27.4482 551.749 27.3633C551.817 27.2613 551.902 27.1594 552.003 27.0575C552.156 26.8877 552.309 26.7008 552.428 26.497C552.818 25.8516 553.005 25.0703 553.005 24.0681C553.005 22.8792 552.835 21.6392 552.428 20.1615C552.207 19.3462 551.885 18.2932 551.273 17.342C551.239 17.274 551.189 17.2231 551.138 17.1552C551.121 17.1212 551.087 17.1042 551.07 17.0702C551.036 17.0193 550.985 17.0023 550.917 17.0023C550.849 17.0023 550.798 17.0363 550.764 17.1042C550 18.48 549.61 19.9577 549.593 21.6223C549.576 22.9981 549.796 24.187 550.068 25.1212C549.389 23.8643 548.625 22.6584 547.793 21.5034L547.776 21.4694C547.759 21.4524 547.742 21.4354 547.759 21.4354C547.708 21.0617 547.674 20.773 547.64 20.5012C547.64 20.5012 547.64 20.4673 547.691 20.4163C547.742 20.3314 547.81 20.2295 547.878 20.1276C548.014 19.9407 548.132 19.7369 548.217 19.4991C548.472 18.8197 548.523 18.0554 548.387 17.1382C548.082 15.1339 547.199 13.3335 545.688 11.618C545.535 11.4481 545.365 11.2953 545.178 11.1254L545.127 11.0745C545.059 11.0065 544.975 10.9386 544.907 10.8706C544.856 10.8197 544.788 10.8027 544.72 10.8367C544.652 10.8536 544.618 10.9046 544.601 10.9725L544.567 11.1254C544.55 11.2273 544.533 11.2953 544.516 11.3802C544.312 12.6031 544.329 13.894 544.567 15.3717C544.805 16.8324 545.263 18.0724 545.976 19.1594C544.907 17.9025 543.871 16.8494 542.784 15.9152L542.767 15.8813C542.852 15.1509 542.666 14.4545 542.224 13.7751C541.63 12.8749 540.798 12.1955 539.745 11.7369C539.117 11.4651 538.472 11.2273 537.844 10.9895C537.538 10.8706 537.233 10.7687 536.927 10.6498C536.621 10.5309 536.486 10.497 536.401 10.5649C536.299 10.6498 536.333 10.7348 536.367 10.8536L536.384 10.9046C536.774 12.1955 537.267 13.2146 537.929 14.0129C539.151 15.4906 540.56 16.2549 542.275 16.3229C542.343 16.3229 542.377 16.3399 542.394 16.3568C542.632 16.5437 542.818 16.6796 542.971 16.8154C543.464 17.274 543.956 17.7496 544.431 18.2592C543.718 17.8176 542.852 17.6138 541.885 17.6647C541.358 17.6987 540.815 17.7666 540.306 17.8515H540.289C540.136 17.8685 539.983 17.9025 539.83 17.9195C539.508 17.9704 539.168 18.0214 538.88 18.0724C538.761 18.0893 538.472 18.1573 538.404 18.2932C538.387 18.3441 538.387 18.3951 538.404 18.446C538.421 18.48 538.455 18.531 538.472 18.5649C539.321 19.669 540.289 20.3823 541.426 20.773C542.818 21.2486 544.092 21.2146 545.229 20.6541C545.399 20.5522 545.62 20.5012 545.857 20.5012C546.044 20.5012 546.18 20.5352 546.214 20.5352C546.282 20.5522 546.367 20.5862 546.401 20.6031C547.114 21.5373 547.793 22.5395 548.421 23.5925C547.895 23.066 547.199 22.7263 546.248 22.4885C545.416 22.2847 544.567 22.2507 543.752 22.1998L543.481 22.1828C543.226 22.1658 542.971 22.1488 542.7 22.1318L542.258 22.0978C542.207 22.0978 542.139 22.1318 542.105 22.1658C542.071 22.2167 542.054 22.2847 542.088 22.3356C542.105 22.3866 542.139 22.4715 542.156 22.5055C543.022 23.9492 544.041 24.9514 545.263 25.5628C546.469 26.1573 547.538 26.3272 548.642 26.0554C548.761 26.0214 548.913 26.0044 549.066 26.0044C549.525 26.0044 549.847 26.1403 549.915 26.2762C550.509 27.5161 551.053 28.807 551.511 30.1148C551.019 29.4524 550.357 28.9089 549.491 28.5013C548.642 28.0936 547.742 27.7369 546.876 27.3633C546.503 27.2104 546.129 27.0575 545.756 26.8877C545.705 26.8707 545.637 26.8707 545.586 26.9046C545.535 26.9386 545.501 26.9896 545.501 27.0575C545.501 27.1764 546.74 30.6414 548.557 32.0002C549.287 32.5607 550.204 33.1212 551.358 33.1552C551.698 33.1552 552.054 33.2062 552.326 33.5119C552.36 33.5628 552.428 33.5968 552.479 33.6138C552.564 33.6478 552.598 33.6987 552.649 33.8856C553.022 35.4482 553.294 37.0448 553.464 38.6924C553.413 38.5225 553.362 38.3527 553.294 38.1828C552.886 37.1637 552.207 36.2635 551.155 35.3463C550.611 34.8707 550.034 34.4291 549.491 33.9875L549.457 33.9705C549.202 33.7667 548.947 33.5798 548.71 33.376C548.659 33.342 548.608 33.2911 548.557 33.2401L548.404 33.1042C548.353 33.0533 548.268 33.0533 548.2 33.0873C548.133 33.1212 548.099 33.1892 548.099 33.2571C548.099 33.359 548.116 33.4779 548.116 33.5798V33.6308C548.132 33.8346 548.132 34.0384 548.166 34.2253C548.37 36.0936 548.913 37.6563 549.864 38.9981C550.458 39.8304 551.29 40.8495 552.598 41.3251C552.92 41.444 553.141 41.6138 553.396 41.9365C553.633 42.2423 553.667 42.514 553.667 42.8537C553.65 44.2975 553.548 45.7242 553.362 47.117C553.328 46.7264 553.226 46.3357 553.09 45.9111C552.801 45.0448 552.36 44.2126 551.732 43.3463C551.189 42.599 550.628 41.8516 550.085 41.1212L550.051 41.0703C549.83 40.7815 549.627 40.4928 549.406 40.221C549.372 40.1701 549.304 40.1361 549.27 40.1361C549.219 40.1191 549.168 40.1191 549.117 40.1361C549.066 40.1531 549.032 40.2041 549.015 40.255V40.272C548.998 40.306 548.998 40.3229 548.998 40.3399C548.625 42.582 548.846 44.5862 549.711 46.4886C550.119 47.4058 550.679 48.4589 551.664 49.2062C552.105 49.5459 552.462 50.0385 552.666 50.565C552.7 50.6839 552.7 50.7349 552.7 50.7519C552.292 52.4674 551.749 54.1319 551.087 55.7115C551.256 54.8792 551.239 54.013 551.053 53.1128C550.781 51.8389 550.306 50.599 549.881 49.5289L549.762 49.2062C549.559 48.7136 549.372 48.2041 549.151 47.6945C549.117 47.6266 549.066 47.5756 548.981 47.5756C548.913 47.5756 548.863 47.6096 548.829 47.6775L548.761 47.7964C548.727 47.8474 548.71 47.8983 548.676 47.9493C547.827 49.8686 547.538 51.8389 547.827 53.7922C548.031 55.185 548.37 56.1871 548.947 57.0364C549.236 57.478 549.525 57.9706 549.576 58.565C549.593 58.7009 549.576 58.8028 549.525 58.9217C548.812 60.1786 547.997 61.3676 547.131 62.4716C547.131 62.4716 547.131 62.4546 547.148 62.4546C547.776 61.2997 547.793 60.0428 547.742 58.9727C547.691 58.0555 547.589 57.1383 547.487 56.2551V56.2041C547.453 55.8474 547.402 55.4907 547.368 55.134C547.352 54.9302 547.318 54.7264 547.301 54.5226L547.148 54.3527C547.148 54.2848 547.097 54.2338 547.046 54.2168C546.944 54.1659 546.791 54.2508 546.605 54.4546C545.399 55.8814 544.652 57.478 544.397 59.2275C544.126 61.0449 544.262 62.5905 544.856 63.9663C544.873 64.0003 544.873 64.0852 544.873 64.1022L544.839 64.9005C544.839 64.9515 544.805 65.0194 544.771 65.0534C543.565 66.2084 542.258 67.2105 540.832 68.0428C541.511 67.4313 541.986 66.65 542.292 65.6479C542.632 64.5438 542.818 63.3718 542.988 62.2508L543.005 62.1489C543.073 61.7583 543.124 61.3676 543.192 60.9599L543.26 60.5013C543.277 60.4334 543.243 60.3655 543.192 60.3315C543.141 60.2975 543.073 60.2805 543.005 60.3145L542.937 60.3485C542.869 60.3825 542.801 60.3994 542.75 60.4334C540.068 61.7752 538.302 64.9005 538.557 67.8559C538.591 68.3145 538.557 68.7561 538.421 69.1808C538.404 69.2148 538.37 69.2657 538.353 69.2657C537.08 69.8092 535.874 70.1999 534.652 70.4547C534.584 70.4717 534.533 70.5056 534.516 70.5736C534.499 70.6415 534.516 70.6925 534.55 70.7434C534.686 70.8963 534.805 71.0661 534.89 71.253C534.924 71.3209 535.026 71.3549 535.093 71.3379C536.078 71.1171 537.046 70.8114 537.963 70.4717C538.031 70.4377 538.099 70.4207 538.149 70.4377C538.353 70.4717 538.574 70.5056 538.812 70.5736C538.863 70.5905 538.897 70.6075 538.897 70.6075C539.423 71.6436 540.306 72.3061 541.63 72.6288C541.919 72.6967 542.207 72.7477 542.513 72.7816C542.818 72.8156 543.175 72.8326 543.548 72.8326C544.058 72.8326 544.431 72.7986 544.431 72.7986C545.569 72.6627 546.554 72.408 547.419 72.0173C547.776 71.8475 548.183 71.6266 548.489 71.236C548.557 71.168 548.54 71.0492 548.472 70.9812C547.589 70.1999 546.689 69.6394 545.739 69.2487C544.312 68.6882 543.005 68.5353 541.732 68.7731C541.545 68.8071 541.358 68.8581 541.172 68.909C542.36 68.1956 543.515 67.3634 544.584 66.3952C544.601 66.3782 544.635 66.3612 544.669 66.3612C544.839 66.3273 545.076 66.2933 545.314 66.2763C545.331 66.2763 545.365 66.2933 545.365 66.2933C546.01 67.0237 546.859 67.3803 547.929 67.3803C547.98 67.3803 548.031 67.3803 548.099 67.3803C549.27 67.3464 550.442 67.0237 551.579 66.4292C552.411 65.9876 553.277 65.495 553.99 64.7307C554.143 64.5608 554.278 64.374 554.414 64.2041L554.431 64.1871C554.482 64.1192 554.533 64.0343 554.601 63.9663C554.635 63.9324 554.652 63.8814 554.635 63.8304C554.618 63.7795 554.601 63.7285 554.55 63.7115C554.533 63.7115 554.245 63.5417 553.973 63.4398C552.156 62.7434 550.306 62.6585 548.557 63.236C547.98 63.4228 547.436 63.6946 546.91 64.0852C547.878 62.9472 548.795 61.7073 549.61 60.3655C549.627 60.3485 549.644 60.3145 549.644 60.3145C549.711 60.2636 549.796 60.2296 549.864 60.1786C550 60.0937 550.136 60.0258 550.255 59.9239C550.357 59.8389 550.391 59.8389 550.509 59.9069C550.662 60.0088 550.849 60.0597 551.002 60.0937C551.919 60.3315 552.835 60.2126 553.854 59.737C554.788 59.2954 555.501 58.616 556.129 57.9366C557.046 56.9514 557.657 56.0512 558.031 55.117C558.116 54.9302 558.166 54.7264 558.217 54.5056C558.234 54.4207 558.268 54.3357 558.285 54.2338C558.319 54.1489 558.268 54.047 558.166 54.013H558.099C557.725 54.013 554.363 54.064 552.411 55.9663C551.986 56.3739 551.596 56.8156 551.256 57.3081C552.037 55.6606 552.683 53.9281 553.226 52.1446V52.1107C553.226 52.0937 553.243 52.0597 553.243 52.0427L553.752 51.3463C553.769 51.3124 553.769 51.3124 553.803 51.3124C553.82 51.3124 553.837 51.3124 553.854 51.3124H553.956C554.329 51.3293 554.567 51.3293 554.754 51.2954C555.484 51.1765 556.146 50.8198 556.774 50.1744C558.234 48.6797 559.236 46.7943 559.847 44.4503C559.915 44.1956 559.932 43.9408 559.949 43.669C559.966 43.5501 559.966 43.4142 559.983 43.2954C560 43.2274 559.966 43.1595 559.932 43.1255Z" fill="white"/>
<path d="M25.2971 70.4376C24.0747 70.1659 22.8693 69.7752 21.5959 69.2486C21.5789 69.2486 21.545 69.1977 21.528 69.1637C21.4092 68.7391 21.3582 68.2975 21.3922 67.8389C21.6469 64.8835 19.8812 61.7582 17.1986 60.4164C17.1477 60.3824 17.0798 60.3654 17.0119 60.3314L16.961 60.2975C16.893 60.2635 16.8251 60.2805 16.7742 60.3144C16.7233 60.3484 16.6893 60.4164 16.7063 60.4843L16.7742 60.9429C16.8421 61.3505 16.91 61.7412 16.961 62.1319L16.9779 62.2338C17.1477 63.3548 17.3345 64.5098 17.674 65.6138C17.9796 66.6159 18.472 67.4143 19.1341 68.0087C17.725 67.1765 16.4007 66.1743 15.1952 65.0193C15.1783 65.0024 15.1443 64.9344 15.1443 64.8835L15.1104 64.0852C15.1104 64.0512 15.1104 63.9832 15.1273 63.9493C15.7216 62.5735 15.8744 61.0278 15.5857 59.2104C15.3141 57.4609 14.5671 55.8643 13.3786 54.4376C13.2428 54.2677 13.107 54.1828 13.0051 54.1828C12.9881 54.1828 12.9542 54.1828 12.9372 54.1998C12.9032 54.2337 12.8523 54.2847 12.8523 54.3526L12.8183 54.6244C12.8014 54.8282 12.7674 55.0321 12.7504 55.2359C12.7165 55.5926 12.6655 55.9493 12.6316 56.3059V56.3569C12.5297 57.2401 12.4278 58.1573 12.3769 59.0745C12.309 60.1446 12.326 61.4015 12.9711 62.5565C12.9711 62.5565 12.9711 62.5735 12.9881 62.5735C12.1053 61.4694 11.3073 60.2805 10.5942 59.0236C10.5263 58.9047 10.5263 58.8198 10.5433 58.6669C10.5942 58.0724 10.8659 57.5798 11.1715 57.1382C11.7317 56.289 12.0883 55.2868 12.292 53.894C12.5806 51.9408 12.292 49.9705 11.4431 48.0511C11.4261 48.0002 11.3922 47.9492 11.3582 47.8983L11.2903 47.7794C11.2564 47.7114 11.1885 47.6775 11.1205 47.6775C11.0526 47.6775 10.9847 47.7284 10.9677 47.7964C10.764 48.3229 10.5603 48.8155 10.3565 49.308L10.1868 49.6308C9.76231 50.6838 9.28693 51.9238 9.01528 53.2146C8.82852 54.1149 8.81155 54.9811 8.98132 55.8134C8.31919 54.2337 7.77589 52.5862 7.36842 50.8537C7.36842 50.8367 7.36842 50.7858 7.40238 50.6669C7.58913 50.1403 7.94567 49.6478 8.40407 49.308C9.38879 48.5607 9.94907 47.5076 10.3565 46.5904C11.2054 44.7051 11.4431 42.6838 11.0696 40.4418C11.0696 40.4248 11.0526 40.3908 11.0526 40.3738V40.3569C11.0357 40.3059 11.0017 40.2719 10.9508 40.238C10.8998 40.221 10.8489 40.221 10.798 40.238C10.764 40.2549 10.6961 40.2719 10.6621 40.3229C10.4414 40.6116 10.2377 40.9004 10.017 41.1891L9.98302 41.2401C9.43973 41.9704 8.87946 42.7178 8.33616 43.4651C7.70798 44.3314 7.26655 45.1637 6.97793 46.0299C6.84211 46.4375 6.75722 46.8452 6.70628 47.2359C6.51952 45.8431 6.41766 44.4163 6.40068 42.9726C6.40068 42.6329 6.43464 42.3611 6.67233 42.0554C6.927 41.7327 7.14771 41.5628 7.47029 41.4439C8.77759 40.9683 9.62649 39.9492 10.2037 39.1169C11.1545 37.7751 11.7148 36.2125 11.9015 34.3441C11.9185 34.1573 11.9355 33.9534 11.9525 33.7496V33.6987C11.9525 33.5967 11.9694 33.4948 11.9694 33.3759C11.9694 33.308 11.9355 33.2401 11.8676 33.2061C11.7997 33.1721 11.7148 33.1891 11.6638 33.2231L11.511 33.359C11.4601 33.4099 11.4092 33.4439 11.3582 33.4948C11.1036 33.6987 10.8489 33.9025 10.6112 34.0893L10.5772 34.1063C10.017 34.5479 9.45671 34.9895 8.91341 35.4651C7.86078 36.3653 7.16469 37.2655 6.77419 38.3016C6.70628 38.4715 6.65535 38.6413 6.60441 38.8112C6.77419 37.1806 7.04584 35.567 7.41935 34.0044C7.47029 33.8176 7.48727 33.7496 7.58913 33.7326C7.64007 33.7156 7.70798 33.6817 7.74194 33.6307C8.01358 33.325 8.37012 33.274 8.70968 33.274C9.86418 33.2401 10.764 32.6795 11.511 32.119C13.3277 30.7602 14.5671 27.2952 14.5671 27.1763C14.5671 27.1084 14.5331 27.0575 14.4822 27.0235C14.4312 26.9895 14.3633 26.9895 14.3124 27.0065C13.9389 27.1594 13.5654 27.3292 13.1749 27.4821C12.2581 27.8388 11.3752 28.1955 10.5263 28.6031C9.66044 29.0107 8.98133 29.5543 8.50594 30.2167C8.96435 28.9088 9.50764 27.618 10.1019 26.378C10.1698 26.2422 10.4924 26.1063 10.9677 26.1063C11.1205 26.1063 11.2733 26.1233 11.3922 26.1572C12.4788 26.412 13.5654 26.2591 14.7708 25.6647C15.9932 25.0532 17.0119 24.0511 17.8778 22.6073C17.8947 22.5734 17.9287 22.4884 17.9457 22.4375C17.9626 22.3865 17.9627 22.3186 17.9287 22.2676C17.8947 22.2167 17.8438 22.1997 17.7759 22.1997L17.3514 22.2337C17.0798 22.2506 16.8251 22.2676 16.5705 22.2846L16.2988 22.3016C15.4839 22.3356 14.635 22.3865 13.8031 22.5903C12.8523 22.8112 12.1562 23.1678 11.6299 23.6944C12.2581 22.6413 12.9372 21.6392 13.6503 20.705C13.6672 20.688 13.7691 20.637 13.837 20.637C13.871 20.6201 14.0068 20.6031 14.1935 20.6031C14.4312 20.6031 14.652 20.654 14.8217 20.7559C15.9593 21.3165 17.2326 21.3504 18.6248 20.8748C19.7623 20.4842 20.7301 19.7708 21.5789 18.6668C21.6129 18.6328 21.6299 18.5988 21.6469 18.5479C21.6808 18.4969 21.6808 18.446 21.6469 18.395C21.5789 18.2591 21.2903 18.1912 21.1715 18.1742C20.8829 18.1232 20.5433 18.0723 20.2207 18.0213C20.0679 18.0043 19.9151 17.9704 19.7623 17.9534H19.7453C19.236 17.8854 18.7097 17.8005 18.1664 17.7666C17.1986 17.7156 16.3328 17.9194 15.6197 18.361C16.0951 17.8515 16.5874 17.3759 17.0798 16.9173C17.2326 16.7814 17.4194 16.6285 17.657 16.4587C17.674 16.4417 17.725 16.4247 17.7759 16.4247C19.4737 16.3568 20.8998 15.6094 22.1222 14.1147C22.7844 13.2994 23.2937 12.2973 23.6672 11.0064L23.6842 10.9555C23.7182 10.8196 23.7521 10.7517 23.6503 10.6667C23.5823 10.5988 23.4465 10.6158 23.1239 10.7517C22.8183 10.8706 22.5127 10.9725 22.2071 11.0914C21.5789 11.3292 20.9338 11.567 20.3226 11.8387C19.2869 12.2973 18.455 12.9767 17.8438 13.8769C17.3854 14.5564 17.2156 15.2527 17.3005 15.9831C17.3005 15.9831 17.3005 16.0171 17.2835 16.0171C16.1969 16.9513 15.1613 18.0043 14.0917 19.2782C14.8048 18.1912 15.2632 16.9343 15.5008 15.4905C15.7385 14.0298 15.7555 12.722 15.5518 11.499C15.5008 11.3462 15.4839 11.2782 15.4499 11.1763L15.416 11.0404C15.416 10.9725 15.365 10.9215 15.2971 10.9045C15.2292 10.8876 15.1613 10.9045 15.1104 10.9385C15.0424 11.0064 14.9745 11.0744 14.9066 11.1423L14.8557 11.1933C14.6689 11.3631 14.4992 11.516 14.3463 11.6859C12.8353 13.4014 11.9525 15.2018 11.6469 17.206C11.511 18.1063 11.562 18.8876 11.8166 19.567C11.9015 19.7878 12.0374 19.9916 12.1562 20.1954C12.2241 20.2804 12.275 20.3823 12.326 20.4672C12.3599 20.5351 12.3769 20.5521 12.3769 20.5521C12.3599 20.8239 12.309 21.1126 12.275 21.4693C12.275 21.4693 12.2581 21.4863 12.2411 21.5203L12.2241 21.5373C11.3922 22.6923 10.6282 23.8982 9.94907 25.1551C10.2207 24.2209 10.4414 23.032 10.4244 21.6562C10.4075 20.0086 10.017 18.5309 9.25297 17.1381C9.21902 17.0871 9.16808 17.0532 9.08319 17.0362C9.03226 17.0362 8.98133 17.0702 8.93039 17.1041C8.91341 17.1381 8.87946 17.1721 8.86248 17.1891C8.81154 17.257 8.76061 17.308 8.72666 17.3759C8.11545 18.3271 7.79287 19.3801 7.57216 20.1954C7.18166 21.6901 6.99491 22.93 6.99491 24.102C6.99491 25.1042 7.18166 25.8855 7.57216 26.5309C7.691 26.7347 7.8438 26.9046 7.9966 27.0914C8.08149 27.1933 8.16638 27.2783 8.23429 27.3802C8.28523 27.4481 8.31919 27.5161 8.31919 27.567C8.33616 27.8048 8.31919 28.0426 8.31919 28.2804V28.4502C8.31919 28.4842 8.31919 28.5182 8.30221 28.5352C7.80985 29.7241 7.3854 30.9471 7.01188 32.2209C7.06282 31.7963 7.09677 31.3717 7.09677 30.964C7.14771 28.6541 6.43464 26.5819 4.99151 24.8324L4.68591 24.4587C4.65195 24.4078 4.60102 24.3908 4.55009 24.3908H4.51613C4.44822 24.4078 4.39728 24.4417 4.38031 24.5097C4.34635 24.5776 4.32937 24.6456 4.29542 24.7135C4.24448 24.8494 4.19355 24.9683 4.15959 25.0872C3.85399 26.0553 3.70119 27.1084 3.66723 28.5182V28.5521C3.65025 29.5713 3.6163 30.981 4.02377 32.3229C4.43124 33.6477 5.16129 34.3101 5.31409 34.429L5.33107 34.446C5.72156 34.7857 5.95925 35.1084 6.01019 35.3123C6.02716 35.3972 6.04414 35.4821 6.0781 35.567C6.17997 35.9237 6.11205 36.2804 6.04414 36.6541C6.01019 36.8409 5.97623 37.0447 5.95925 37.2316C5.90832 38.0299 5.84041 38.8452 5.7725 39.6265V39.6944C5.75552 39.8983 5.73854 40.1021 5.72156 40.2889C5.56876 38.4885 4.95756 36.8579 3.93888 35.4142C3.3107 34.5309 2.56367 33.7666 1.71477 33.1551C1.68081 33.1212 1.64686 33.1042 1.59593 33.0702C1.57895 33.0532 1.54499 33.0362 1.51104 33.0193C1.4601 32.9853 1.39219 32.9853 1.34126 33.0193C1.29032 33.0532 1.23939 33.1042 1.23939 33.1721C1.22241 33.291 1.22241 33.3929 1.20543 33.5118C1.18845 33.7496 1.1545 33.9704 1.1545 34.2082C1.1545 36.5522 1.64686 38.7602 2.63158 40.7645C2.90323 41.325 3.27674 41.8006 3.71817 42.1913C4.15959 42.5819 4.63497 42.8027 5.17827 42.8876C5.19525 42.8876 5.21222 42.9046 5.2292 42.9046C5.26316 42.9556 5.28014 43.0235 5.31409 43.0745C5.41596 43.2783 5.5348 43.4991 5.58574 43.7199C5.63667 43.9068 5.63667 44.0936 5.63667 44.3144C5.63667 44.3993 5.63667 44.4673 5.63667 44.5522C5.68761 46.3696 5.75552 47.015 6.04414 48.6456C5.87436 48.1531 5.63667 47.6775 5.34805 47.2019C4.17657 45.3165 2.69949 44.0257 0.814941 43.2783C0.696095 43.2273 0.57725 43.1934 0.441426 43.1594H0.40747C0.356537 43.1424 0.288625 43.1254 0.220713 43.1085C0.169779 43.0915 0.101868 43.1085 0.0509338 43.1424C0.0169779 43.1594 0 43.2273 0 43.2783C0.0169779 43.4142 0.0169779 43.5331 0.0339559 43.652C0.0509338 43.9237 0.0679117 44.1785 0.135823 44.4333C0.747029 46.7773 1.74873 48.6626 3.20883 50.1573C3.83701 50.8027 4.49915 51.1594 5.2292 51.2783C5.41596 51.3123 5.63667 51.3123 6.02716 51.2953H6.12903C6.14601 51.2953 6.16299 51.2953 6.17997 51.2953C6.21392 51.2953 6.21392 51.2953 6.2309 51.3293L6.74024 52.0257C6.74024 52.0427 6.75722 52.0766 6.75722 52.0936V52.1106C7.28353 53.911 7.94567 55.6435 8.72666 57.2741C8.37012 56.7985 7.9966 56.3569 7.57216 55.9323C5.61969 54.0299 2.25806 53.979 1.88455 53.979H1.83362H1.79966C1.71477 54.0299 1.66384 54.1149 1.69779 54.2168C1.73175 54.3017 1.74873 54.3866 1.78268 54.4885C1.83362 54.6754 1.88455 54.8792 1.96944 55.083C2.34295 56.0172 2.93718 56.9004 3.87097 57.9025C4.49915 58.582 5.21222 59.2614 6.14601 59.703C7.16469 60.1786 8.08149 60.2975 8.9983 60.0597C9.1511 60.0257 9.33786 59.9747 9.49066 59.8728C9.59253 59.8049 9.62648 59.8049 9.74533 59.8898C9.88115 59.9917 10 60.0597 10.1358 60.1446C10.2037 60.1955 10.2886 60.2295 10.3565 60.2805C10.3735 60.2975 10.3905 60.3314 10.4075 60.3484C11.2224 61.6902 12.1222 62.9302 13.107 64.0682C12.5806 63.6775 12.0374 63.4058 11.4601 63.2189C9.71138 62.6584 7.86078 62.7263 6.04414 63.4227C5.7725 63.5246 5.46689 63.6945 5.44992 63.6945C5.41596 63.7285 5.382 63.7624 5.36503 63.8134C5.36503 63.8643 5.36503 63.9153 5.39898 63.9493C5.44992 64.0172 5.51783 64.1021 5.56876 64.1701L5.58574 64.1871C5.70458 64.3569 5.84041 64.5438 6.01019 64.7136C6.70628 65.461 7.58913 65.9705 8.42105 66.4121C9.57555 67.0066 10.747 67.3293 11.9015 67.3633C11.9525 67.3633 12.0034 67.3633 12.0713 67.3633C13.1409 67.3633 13.9728 67.0066 14.618 66.2932C14.618 66.2932 14.652 66.2762 14.6689 66.2762C14.8727 66.2762 15.1104 66.3102 15.2801 66.3442C15.3141 66.3442 15.348 66.3612 15.365 66.3782C16.4516 67.3293 17.5891 68.1786 18.7776 68.892C18.5908 68.841 18.4041 68.7901 18.2173 68.7561C16.944 68.5183 15.6367 68.6712 14.2105 69.2317C13.2428 69.6223 12.343 70.1828 11.4771 70.9642C11.4092 71.0321 11.3922 71.134 11.4601 71.2189C11.7657 71.6096 12.1732 71.8304 12.5297 72.0002C13.3956 72.4079 14.3803 72.6627 15.5178 72.7816C15.5178 72.7816 15.8913 72.8155 16.4007 72.8155C16.7742 72.8155 17.1138 72.7986 17.4363 72.7646C17.7419 72.7306 18.0306 72.6797 18.3192 72.6117C19.6435 72.289 20.5433 71.6266 21.0526 70.6075C21.0696 70.5905 21.1036 70.5735 21.1545 70.5565C21.3922 70.5056 21.6129 70.4546 21.8166 70.4206C21.8676 70.4206 21.9185 70.4206 22.0034 70.4546C22.9202 70.8113 23.8879 71.1 24.8727 71.3208C24.8896 71.3208 24.9066 71.3208 24.9236 71.3208C24.9915 71.3208 25.0594 71.2869 25.0764 71.2189C25.1783 71.0491 25.2801 70.8792 25.416 70.7094C25.4499 70.6584 25.4669 70.5905 25.4499 70.5395C25.416 70.5056 25.365 70.4546 25.2971 70.4376Z" fill="white"/>
<path d="M54.1596 32.8494L60.8319 26.3271C61.0527 26.1063 61.1375 25.7835 61.0357 25.4778C60.9338 25.1721 60.6791 24.9513 60.3566 24.9173L51.1206 23.5755L46.9949 15.2018C46.8591 14.913 46.5705 14.7432 46.2479 14.7432C45.9253 14.7432 45.6367 14.93 45.5009 15.2018L41.3752 23.5755L32.1392 24.9173C31.8336 24.9682 31.562 25.1891 31.4601 25.4778C31.3583 25.7835 31.4431 26.1063 31.6639 26.3271L38.3362 32.8494L36.7572 42.0553C36.7063 42.3611 36.8252 42.6838 37.0798 42.8706C37.3345 43.0575 37.674 43.0745 37.9627 42.9386L46.2139 38.5904L54.4652 42.9386C54.5841 43.0065 54.7199 43.0405 54.8557 43.0405C55.0255 43.0405 55.1953 42.9895 55.3481 42.8876C55.6027 42.7008 55.7386 42.3781 55.6707 42.0723L54.1596 32.8494Z" fill="white"/>
<path d="M93.2258 32.8494L99.8982 26.3271C100.119 26.1063 100.204 25.7835 100.102 25.4778C100 25.1721 99.7454 24.9513 99.4228 24.9173L90.1868 23.5755L86.0781 15.2018C85.9423 14.913 85.6537 14.7432 85.3311 14.7432C85.0085 14.7432 84.7199 14.93 84.5841 15.2018L80.4584 23.5755L71.2224 24.9173C70.9168 24.9682 70.6452 25.1891 70.5433 25.4778C70.4415 25.7835 70.5263 26.1063 70.7471 26.3271L77.4194 32.8494L75.8404 42.0553C75.7895 42.3611 75.9083 42.6838 76.163 42.8706C76.4177 43.0575 76.7572 43.0745 77.0459 42.9386L85.2971 38.5904L93.5484 42.9386C93.6673 43.0065 93.8031 43.0405 93.9389 43.0405C94.1087 43.0405 94.2785 42.9895 94.4313 42.8876C94.6859 42.7008 94.8218 42.3781 94.7538 42.0723L93.2258 32.8494Z" fill="white"/>
<path d="M132.309 32.8494L138.981 26.3271C139.202 26.1063 139.287 25.7835 139.185 25.4778C139.083 25.1721 138.829 24.9513 138.506 24.9173L129.27 23.5755L125.144 15.2018C125.009 14.913 124.72 14.7432 124.397 14.7432C124.075 14.7432 123.786 14.93 123.65 15.2018L119.525 23.5755L110.289 24.9173C109.983 24.9682 109.711 25.1891 109.61 25.4778C109.508 25.7835 109.593 26.1063 109.813 26.3271L116.486 32.8494L114.907 42.0553C114.856 42.3611 114.975 42.6838 115.229 42.8706C115.484 43.0575 115.823 43.0745 116.112 42.9386L124.363 38.5904L132.615 42.9386C132.733 43.0065 132.869 43.0405 133.005 43.0405C133.175 43.0405 133.345 42.9895 133.497 42.8876C133.752 42.7008 133.888 42.3781 133.82 42.0723L132.309 32.8494Z" fill="white"/>
<path d="M171.375 32.8494L178.048 26.3271C178.268 26.1063 178.353 25.7835 178.251 25.4778C178.149 25.1721 177.895 24.9513 177.572 24.9173L168.336 23.5755L164.211 15.2018C164.075 14.913 163.786 14.7432 163.464 14.7432C163.141 14.7432 162.852 14.93 162.717 15.2018L158.591 23.5755L149.355 24.9173C149.049 24.9682 148.778 25.1891 148.676 25.4778C148.574 25.7835 148.659 26.1063 148.88 26.3271L155.552 32.8494L153.973 42.0553C153.922 42.3611 154.041 42.6838 154.295 42.8706C154.55 43.0575 154.89 43.0745 155.178 42.9386L163.43 38.5904L171.681 42.9386C171.8 43.0065 171.936 43.0405 172.071 43.0405C172.241 43.0405 172.411 42.9895 172.564 42.8876C172.818 42.7008 172.954 42.3781 172.886 42.0723L171.375 32.8494Z" fill="white"/>
<path d="M210.441 32.8494L217.114 26.3271C217.334 26.1063 217.419 25.7835 217.318 25.4778C217.216 25.1721 216.961 24.9513 216.638 24.9173L207.402 23.5755L203.277 15.2018C203.141 14.913 202.852 14.7432 202.53 14.7432C202.207 14.7432 201.919 14.93 201.783 15.2018L197.657 23.5755L188.455 24.9173C188.149 24.9682 187.878 25.1891 187.776 25.4778C187.674 25.7835 187.759 26.1063 187.98 26.3271L194.652 32.8494L193.073 42.0553C193.022 42.3611 193.141 42.6838 193.396 42.8706C193.65 43.0575 193.99 43.0745 194.278 42.9386L202.53 38.5904L210.781 42.9386C210.9 43.0065 211.036 43.0405 211.172 43.0405C211.341 43.0405 211.511 42.9895 211.664 42.8876C211.919 42.7008 212.054 42.3781 211.986 42.0723L210.441 32.8494Z" fill="white"/>
<path d="M64.3633 64.9854C63.82 63.5077 63.5484 61.911 63.5484 60.1955C63.5484 58.4461 63.837 56.7985 64.4143 55.2868C64.9915 53.7582 65.8065 52.5013 66.8761 51.5161H68.3362V51.652C67.1987 52.7221 66.3328 54.0129 65.7555 55.5076C65.1783 57.0193 64.8897 58.565 64.8897 60.1955C64.8897 61.7752 65.1613 63.2868 65.7046 64.7136C66.2479 66.1404 67.0459 67.4142 68.0985 68.4843V68.6202H66.6554C65.6706 67.686 64.9066 66.4631 64.3633 64.9854Z" fill="white"/>
<path d="M78.2004 55.9492H72.8353V59.4482C73.073 59.1254 73.4126 58.8537 73.871 58.6499C74.3294 58.446 74.8217 58.3441 75.3481 58.3441C76.197 58.3441 76.8761 58.514 77.4024 58.8707C77.9287 59.2274 78.3192 59.669 78.5399 60.2295C78.7606 60.79 78.8795 61.3675 78.8795 61.9959C78.8795 62.7263 78.7436 63.3887 78.472 63.9662C78.2004 64.5437 77.7759 65.0023 77.2156 65.342C76.6554 65.6817 75.9423 65.8516 75.1104 65.8516C74.0408 65.8516 73.1749 65.5798 72.5127 65.0193C71.8506 64.4588 71.4431 63.7284 71.3073 62.8112H72.6655C72.8014 63.3887 73.073 63.8473 73.5144 64.17C73.9389 64.4928 74.4822 64.6626 75.1273 64.6626C75.9253 64.6626 76.5365 64.4248 76.944 63.9323C77.3515 63.4567 77.5552 62.8112 77.5552 62.0129C77.5552 61.2146 77.3515 60.6032 76.944 60.1785C76.5365 59.7539 75.9423 59.5331 75.1443 59.5331C74.601 59.5331 74.1256 59.669 73.7352 59.9237C73.3277 60.1785 73.0391 60.5352 72.8523 60.9938H71.545V54.7603H78.2004V55.9492Z" fill="white"/>
<path d="M89.287 65.5291C88.7267 65.2743 88.3022 64.9346 87.9797 64.493C87.6571 64.0514 87.5043 63.5418 87.4873 62.9643H88.9644C89.0153 63.4569 89.2191 63.8815 89.5756 64.2212C89.9321 64.5609 90.4584 64.7308 91.1545 64.7308C91.8167 64.7308 92.343 64.5609 92.7165 64.2382C93.107 63.8985 93.2938 63.4739 93.2938 62.9643C93.2938 62.5567 93.1749 62.2339 92.9542 61.9792C92.7335 61.7244 92.4449 61.5376 92.1053 61.4017C91.7657 61.2658 91.3243 61.1299 90.7471 60.977C90.051 60.7902 89.4737 60.6034 89.0663 60.4335C88.6588 60.2637 88.2853 59.9579 87.9797 59.5673C87.6741 59.1766 87.5213 58.6501 87.5213 57.9876C87.5213 57.4101 87.6741 56.9006 87.9627 56.442C88.2513 56.0004 88.6758 55.6437 89.2021 55.4059C89.7284 55.1681 90.3566 55.0322 91.0357 55.0322C92.0374 55.0322 92.8523 55.287 93.4805 55.7796C94.1087 56.2721 94.4822 56.9346 94.5501 57.7668H93.0221C92.9712 57.3592 92.7505 57.0025 92.3769 56.6968C92.0034 56.391 91.4941 56.2382 90.8829 56.2382C90.3056 56.2382 89.8303 56.391 89.4567 56.6798C89.0832 56.9855 88.9135 57.3932 88.9135 57.9367C88.9135 58.3274 89.0153 58.6331 89.236 58.8879C89.4567 59.1257 89.7284 59.3125 90.051 59.4484C90.3736 59.5673 90.832 59.7201 91.4092 59.89C92.1053 60.0768 92.6826 60.2806 93.107 60.4675C93.5314 60.6543 93.905 60.9431 94.2106 61.3337C94.5162 61.7244 94.669 62.2509 94.669 62.9303C94.669 63.4569 94.5331 63.9325 94.2615 64.3911C93.9899 64.8497 93.5824 65.2233 93.0391 65.5121C92.4958 65.8008 91.8676 65.9367 91.1376 65.9367C90.4754 65.9027 89.8472 65.7838 89.287 65.5291Z" fill="white"/>
<path d="M99.8472 58.565V63.5077C99.8472 63.9153 99.9321 64.2041 100.102 64.3739C100.272 64.5438 100.577 64.6287 101.002 64.6287H102.02V65.8007H100.764C99.983 65.8007 99.4058 65.6308 99.0153 65.2741C98.6248 64.9174 98.438 64.3229 98.438 63.5077V58.565H97.3514V57.427H98.438V55.3208H99.8302V57.427H102.02V58.565H99.8472Z" fill="white"/>
<path d="M105.093 59.3292C105.433 58.6838 105.908 58.1742 106.52 57.8176C107.131 57.4609 107.793 57.291 108.54 57.291C109.27 57.291 109.915 57.4439 110.441 57.7666C110.985 58.0893 111.375 58.48 111.647 58.9556V57.4269H113.056V65.8006H111.647V64.238C111.375 64.7305 110.968 65.1382 110.424 65.4609C109.881 65.7836 109.253 65.9365 108.523 65.9365C107.776 65.9365 107.114 65.7496 106.503 65.393C105.908 65.0193 105.433 64.5097 105.076 63.8473C104.737 63.1849 104.55 62.4375 104.55 61.5883C104.567 60.722 104.737 59.9747 105.093 59.3292ZM111.273 59.9407C111.019 59.4651 110.679 59.1084 110.238 58.8706C109.813 58.6159 109.321 58.497 108.812 58.497C108.285 58.497 107.827 58.6159 107.385 58.8706C106.961 59.1084 106.621 59.4651 106.367 59.9407C106.112 60.4163 105.993 60.9598 105.993 61.5883C105.993 62.2337 106.112 62.7942 106.367 63.2698C106.621 63.7454 106.961 64.1021 107.385 64.3569C107.81 64.6116 108.285 64.7305 108.812 64.7305C109.338 64.7305 109.813 64.6116 110.238 64.3569C110.662 64.1021 111.019 63.7454 111.273 63.2698C111.528 62.7942 111.664 62.2507 111.664 61.6053C111.664 60.9598 111.528 60.4163 111.273 59.9407Z" fill="white"/>
<path d="M119.219 57.6646C119.677 57.3928 120.221 57.2739 120.883 57.2739V58.7177H120.509C118.947 58.7177 118.166 59.5669 118.166 61.2485V65.8005H116.774V57.4268H118.166V58.7856C118.421 58.31 118.778 57.9363 119.219 57.6646Z" fill="white"/>
<path d="M134.924 65.8006L132.394 61.4524H130.713V65.8006H129.321V55.1509H132.75C133.548 55.1509 134.245 55.2868 134.788 55.5585C135.348 55.8303 135.756 56.204 136.027 56.6795C136.299 57.1551 136.435 57.6817 136.435 58.2931C136.435 59.0235 136.231 59.6689 135.806 60.2294C135.382 60.79 134.754 61.1636 133.905 61.3505L136.571 65.8176H134.924V65.8006ZM130.713 60.3314H132.767C133.514 60.3314 134.092 60.1445 134.465 59.7708C134.839 59.3972 135.026 58.9046 135.026 58.2762C135.026 57.6477 134.839 57.1551 134.465 56.8154C134.092 56.4757 133.531 56.2889 132.767 56.2889H130.713V60.3314Z" fill="white"/>
<path d="M139.983 59.3292C140.323 58.6838 140.798 58.1742 141.409 57.8176C142.02 57.4609 142.683 57.291 143.43 57.291C144.16 57.291 144.805 57.4439 145.331 57.7666C145.874 58.0893 146.282 58.48 146.537 58.9556V57.4269H147.946V65.8006H146.537V64.238C146.265 64.7305 145.857 65.1382 145.314 65.4609C144.771 65.7836 144.126 65.9365 143.413 65.9365C142.666 65.9365 142.003 65.7496 141.392 65.393C140.798 65.0193 140.323 64.5097 139.966 63.8473C139.627 63.1849 139.44 62.4375 139.44 61.5883C139.474 60.722 139.643 59.9747 139.983 59.3292ZM146.18 59.9407C145.925 59.4651 145.586 59.1084 145.144 58.8706C144.72 58.6159 144.228 58.497 143.718 58.497C143.192 58.497 142.733 58.6159 142.292 58.8706C141.868 59.1084 141.528 59.4651 141.273 59.9407C141.019 60.4163 140.883 60.9598 140.883 61.5883C140.883 62.2337 141.019 62.7942 141.273 63.2698C141.528 63.7454 141.868 64.1021 142.292 64.3569C142.716 64.6116 143.192 64.7305 143.718 64.7305C144.245 64.7305 144.72 64.6116 145.144 64.3569C145.569 64.1021 145.925 63.7454 146.18 63.2698C146.435 62.7942 146.57 62.2507 146.57 61.6053C146.57 60.9598 146.435 60.4163 146.18 59.9407Z" fill="white"/>
<path d="M153.379 58.565V63.5077C153.379 63.9153 153.464 64.2041 153.633 64.3739C153.803 64.5438 154.109 64.6287 154.533 64.6287H155.552V65.8007H154.295C153.514 65.8007 152.937 65.6308 152.547 65.2741C152.156 64.9174 151.969 64.3229 151.969 63.5077V58.565H150.883V57.427H151.969V55.3208H153.362V57.427H155.552V58.565H153.379Z" fill="white"/>
<path d="M166.214 62.1318H159.525C159.576 62.9641 159.864 63.6095 160.373 64.0681C160.883 64.5267 161.511 64.7645 162.241 64.7645C162.835 64.7645 163.345 64.6286 163.752 64.3399C164.16 64.0511 164.431 63.6774 164.601 63.2188H166.095C165.874 64.0172 165.416 64.6796 164.754 65.1891C164.075 65.6987 163.243 65.9535 162.241 65.9535C161.443 65.9535 160.73 65.7836 160.102 65.4269C159.474 65.0702 158.981 64.5607 158.625 63.8983C158.268 63.2358 158.081 62.4715 158.081 61.6053C158.081 60.739 158.251 59.9747 158.608 59.3292C158.947 58.6838 159.44 58.1742 160.068 57.8176C160.696 57.4609 161.409 57.291 162.224 57.291C163.022 57.291 163.718 57.4609 164.329 57.8176C164.941 58.1573 165.416 58.6498 165.739 59.2443C166.078 59.8558 166.231 60.5352 166.231 61.2995C166.265 61.5543 166.248 61.843 166.214 62.1318ZM164.482 59.635C164.244 59.2443 163.922 58.9556 163.531 58.7687C163.124 58.5649 162.682 58.48 162.19 58.48C161.494 58.48 160.883 58.7008 160.39 59.1594C159.898 59.601 159.609 60.2295 159.542 61.0278H164.822C164.822 60.4672 164.72 60.0086 164.482 59.635Z" fill="white"/>
<path d="M169.474 59.3292C169.813 58.6837 170.289 58.1742 170.9 57.8175C171.511 57.4608 172.19 57.2909 172.937 57.2909C173.582 57.2909 174.194 57.4438 174.754 57.7495C175.314 58.0553 175.739 58.4459 176.044 58.9385V54.5054H177.453V65.8175H176.044V64.2379C175.773 64.7305 175.365 65.1551 174.822 65.4608C174.278 65.7835 173.65 65.9364 172.92 65.9364C172.173 65.9364 171.511 65.7496 170.9 65.3929C170.289 65.0192 169.813 64.5096 169.474 63.8472C169.134 63.1848 168.947 62.4374 168.947 61.5882C168.964 60.7219 169.134 59.9746 169.474 59.3292ZM175.671 59.9406C175.416 59.465 175.076 59.1084 174.635 58.8706C174.211 58.6158 173.718 58.4969 173.209 58.4969C172.683 58.4969 172.224 58.6158 171.783 58.8706C171.358 59.1084 171.019 59.465 170.764 59.9406C170.509 60.4162 170.374 60.9597 170.374 61.5882C170.374 62.2336 170.509 62.7941 170.764 63.2697C171.019 63.7453 171.358 64.102 171.783 64.3568C172.207 64.6116 172.683 64.7305 173.209 64.7305C173.735 64.7305 174.211 64.6116 174.635 64.3568C175.059 64.102 175.416 63.7453 175.671 63.2697C175.925 62.7941 176.061 62.2506 176.061 61.6052C176.061 60.9597 175.925 60.4162 175.671 59.9406Z" fill="white"/>
<path d="M180.73 68.6373V68.5014C181.783 67.4144 182.581 66.1575 183.124 64.7307C183.667 63.287 183.939 61.7923 183.939 60.2126C183.939 58.599 183.65 57.0364 183.073 55.5247C182.496 54.03 181.647 52.7392 180.492 51.6691V51.5332H181.952C183.022 52.5183 183.837 53.7752 184.414 55.3039C184.992 56.8326 185.28 58.4632 185.28 60.2126C185.28 61.9281 185.009 63.5247 184.465 65.0025C183.922 66.4802 183.158 67.7031 182.173 68.6543H180.73V68.6373Z" fill="white"/>
<path fill-rule="evenodd" clip-rule="evenodd" d="M321.036 58.8709C322.92 59.7881 326.299 61.062 329.542 60.994C332.479 60.994 334.058 59.4994 334.058 57.665C334.058 55.8985 332.937 54.6925 329.762 52.994C325.857 50.8709 322.92 47.8815 322.92 43.9919C322.92 37.1129 329.168 32.2211 338.268 32.2211C342.258 32.2211 345.331 32.9345 346.995 33.8517L344.584 40.7987C342.547 39.9154 340.34 39.4568 338.115 39.4568C335.178 39.4568 333.294 40.7307 333.294 42.718C333.294 44.2806 334.652 45.4186 337.284 46.7605C341.341 48.9515 344.737 51.9409 344.737 56.1193C344.737 63.9155 338.048 68.3147 328.71 68.2467C324.414 68.1788 320.441 67.1087 318.489 65.8348L321.036 58.8709ZM346.978 68.2128L356.52 17.0534H366.35L362.581 36.8921L362.716 36.7562C365.348 33.546 368.778 31.3209 373.124 31.3209C378.251 31.3209 381.171 34.701 381.171 40.408C381.171 42.1575 380.883 44.994 380.458 47.1851L376.604 68.2128H366.774L370.475 47.8135C370.764 46.4208 370.9 44.6203 370.9 43.2445C370.9 41.0534 370.051 39.4568 367.844 39.4568C364.703 39.4568 361.358 43.7541 360.085 50.3953L356.808 68.2128H346.978ZM393.497 54.3868C393.497 57.9197 394.975 60.7393 398.455 60.7393C403.854 60.7393 406.876 51.5503 406.876 45.5545C406.876 42.667 405.688 39.6946 402.071 39.6946C396.52 39.6946 393.497 48.7987 393.497 54.3868ZM417.284 45.8433C417.284 57.9197 409.151 68.2128 397.114 68.2128C387.963 68.2128 383.073 62.149 383.073 54.5906C383.073 42.8029 391.205 32.2042 403.463 32.2042C412.988 32.2211 417.284 38.8623 417.284 45.8433ZM429.559 58.3444C430.645 59.2276 431.868 59.8221 433.667 59.8221C439.202 59.8221 443.022 50.4802 443.022 43.9409C443.022 41.2233 442.088 38.3528 439.066 38.3528C435.603 38.3528 432.377 42.5481 431.222 48.8666L429.559 58.3444ZM415.382 81.4952L422.292 44.3995C423.09 40.2042 423.871 34.7859 424.312 30.9812H433.09L432.513 36.7052H432.649C435.314 32.9006 439.202 30.3358 443.158 30.3358C450.424 30.3358 453.379 36.2636 453.379 43.0917C453.379 55.4399 445.755 67.6013 434.092 67.6013C431.647 67.6013 429.406 67.1936 428.268 66.2425H428.048L425.314 81.4952H415.382ZM466.35 28.5014C463.514 28.5014 461.63 26.0725 461.63 23.0831C461.63 19.805 464.16 17.0534 467.351 17.0534C470.39 17.0534 472.36 19.4653 472.36 22.3867C472.292 26.1065 469.61 28.5184 466.486 28.5184H466.35V28.5014ZM453.379 68.2297L460.119 32.2891H470.204L463.396 68.2297H453.379ZM472.377 68.2297L477.759 39.5927H473.039L474.516 31.9494H479.236L479.525 30.132C480.34 25.8687 481.952 21.5205 485.416 18.582C488.132 16.2211 491.749 15.168 495.365 15.168C497.878 15.168 499.711 15.5247 500.883 16.0343L498.896 23.9663C497.844 23.6096 496.757 23.4398 495.654 23.4568C492.258 23.4568 490.204 26.684 489.609 30.132L489.236 31.9494H496.299L494.89 39.5927H487.895L482.513 68.2297H472.377ZM509.117 32.2211L510.713 48.1363C511.07 50.9388 511.358 53.7414 511.579 56.5439H511.732C512.53 54.6756 513.26 51.873 514.703 48.0513L520.798 32.2042H531.256L518.981 58.2424C514.618 67.1936 510.407 73.716 505.823 77.9792C502.258 81.3083 498.048 82.9389 496.01 83.3635L493.243 74.9049C494.907 74.3274 497.012 73.4612 498.913 72.0854C501.239 70.5057 503.192 68.3316 504.363 66.0896C504.652 65.58 504.72 65.2403 504.584 64.527L498.557 32.2042L509.117 32.2211ZM274.89 12.2466C274.856 10.2423 274.618 7.45674 273.701 5.06183C276.689 5.62234 278.149 9.01938 278.761 11.0406C277.606 11.3973 276.299 11.8049 274.89 12.2466ZM259.287 38.7944C259.559 43.0237 270.611 43.9409 271.222 53.8603C271.715 61.6565 267.114 66.9898 260.492 67.4144C252.547 67.924 248.166 63.2021 248.166 63.2021L249.847 55.9834C249.847 55.9834 254.244 59.3295 257.776 59.1087C260.085 58.9558 260.9 57.0705 260.815 55.7456C260.475 50.2254 251.46 50.5482 250.9 41.4951C250.424 33.8687 255.399 26.1404 266.384 25.4271C270.611 25.1553 272.784 26.2424 272.784 26.2424L270.272 35.7031C270.272 35.7031 267.47 34.4292 264.143 34.633C259.287 34.9388 259.236 38.0301 259.287 38.7944ZM266.927 2.63295C267.844 2.61596 268.625 2.81978 269.287 3.2614C268.149 3.87286 267.114 4.68815 266.231 5.65631C263.735 8.35695 261.834 12.5353 261.07 16.5608C258.693 17.3081 256.367 18.0215 254.228 18.7009C255.586 12.3315 260.866 2.8028 266.927 2.63295ZM272.275 13.0619L263.939 15.6606C264.754 12.5523 266.265 9.46099 268.149 7.43975C268.845 6.69241 269.83 5.84315 270.968 5.36756C272.071 7.64358 272.309 10.8877 272.275 13.0619ZM283.684 9.51195L281.256 10.2763C280.951 9.29114 280.577 8.32298 280.102 7.40578C278.387 4.11066 275.857 2.36118 272.835 2.36118H272.818C272.615 2.36118 272.394 2.37817 272.19 2.39515C272.105 2.29324 272.003 2.17435 271.919 2.07244C270.594 0.64568 268.896 -0.0507131 266.859 0.0172277C262.937 0.136124 259.015 2.98964 255.857 8.05122C253.633 11.6181 251.935 16.1022 251.443 19.5672L243.718 21.9791C241.443 22.6924 241.375 22.7604 241.07 24.9345C240.832 26.5651 234.89 72.9176 234.89 72.9176L284.295 81.5122V9.41004C284.041 9.42702 283.82 9.46099 283.684 9.51195ZM286.18 81.4952L307.08 76.4336C307.08 76.4336 298.081 17.2232 298.031 16.8156C297.98 16.4079 297.606 16.1871 297.301 16.1532C296.995 16.1192 291.121 16.0343 291.121 16.0343C291.121 16.0343 287.538 12.6372 286.18 11.3633V81.4952Z" fill="white"/>
</g>
<defs>
<clipPath id="clip0_84_4010">
<rect width="560" height="83.3803" fill="white"/>
</clipPath>
</defs>
</svg>
